<?xml version="1.0" standalone="no"?>
<!DOCTYPE svg PUBLIC "-//W3C//DTD SVG 20010904//EN"
 "http://www.w3.org/TR/2001/REC-SVG-20010904/DTD/svg10.dtd">
<svg version="1.0" xmlns="http://www.w3.org/2000/svg"
 width="726.000000pt" height="726.000000pt" viewBox="0 0 726.000000 726.000000"
 preserveAspectRatio="xMidYMid meet">
<metadata>
Created by potrace 1.14, written by Peter Selinger 2001-2017
</metadata>
<g transform="translate(0.000000,726.000000) scale(0.100000,-0.100000)"
fill="#000000" stroke="none">
<path d="M5727 5383 c-2 -1 -34 -5 -72 -8 -109 -8 -169 -16 -175 -23 -3 -4
-14 -8 -25 -10 -94 -11 -115 -16 -115 -24 0 -5 -4 -7 -9 -4 -10 7 -159 -52
-183 -71 -16 -14 -33 -59 -29 -77 1 -5 -4 -5 -11 1 -11 9 -13 -11 -15 -105 -1
-73 2 -109 7 -97 l9 20 1 -20 c1 -11 3 -28 5 -37 2 -10 -1 -20 -5 -23 -5 -3
-7 4 -5 15 2 11 0 20 -6 20 -5 0 -9 -8 -10 -17 0 -10 -3 -38 -6 -63 -3 -25 -6
-116 -7 -202 0 -87 -4 -158 -8 -158 -4 0 -7 -8 -7 -17 3 -210 -3 -322 -16
-333 -11 -9 -12 -17 -5 -30 6 -10 7 -25 4 -34 -3 -9 4 -21 20 -31 14 -10 26
-23 26 -31 0 -7 14 -21 30 -31 17 -9 30 -21 30 -25 0 -4 18 -1 40 7 22 8 41
14 43 14 1 0 13 4 27 9 61 23 68 23 87 3 34 -36 68 -42 231 -36 224 7 232 11
232 121 0 29 5 56 13 61 11 10 72 28 127 39 14 2 36 8 50 13 14 5 52 14 85 21
94 18 288 81 309 101 42 39 35 139 -23 319 -17 52 -31 104 -31 115 0 11 -10
40 -22 65 -11 25 -22 52 -24 60 -2 8 -11 22 -21 30 -10 8 -17 22 -15 32 2 9
-7 23 -20 32 -12 9 -18 16 -12 16 18 0 8 47 -15 71 -12 13 -21 29 -21 36 0 14
-74 166 -91 187 -5 6 -20 25 -34 42 -36 46 -96 62 -226 61 -60 0 -110 -2 -112
-4z m220 -111 c11 -15 30 -45 42 -67 12 -22 33 -58 46 -80 14 -22 56 -102 94
-178 60 -120 68 -143 64 -178 -5 -32 -1 -44 17 -64 26 -27 50 -87 50 -123 0
-20 -4 -23 -40 -20 -22 1 -40 6 -40 10 0 5 -8 5 -17 0 -18 -8 -64 -7 -113 2
-14 2 -28 5 -32 5 -6 1 -17 32 -49 141 -6 19 -14 44 -19 55 -58 132 -123 308
-125 338 -2 26 -10 44 -24 54 -26 18 -64 90 -57 108 6 17 32 22 117 24 61 1
67 -1 86 -27z m-457 -7 c17 -11 60 -70 60 -83 0 -4 14 -21 30 -37 17 -16 30
-35 30 -42 0 -7 14 -47 30 -89 23 -57 29 -84 23 -103 -4 -14 -5 -78 -1 -141 9
-144 9 -162 2 -169 -10 -10 -197 -1 -210 10 -8 6 -25 47 -39 92 -45 141 -60
154 -185 157 -36 0 -68 4 -72 8 -3 4 -8 42 -10 84 -2 43 -6 80 -9 83 -3 3 -4
33 -2 67 3 51 8 66 26 80 22 17 103 45 211 73 32 8 61 17 64 20 7 6 34 1 52
-10z m-373 -397 c-3 -8 -6 -5 -6 6 -1 11 2 17 5 13 3 -3 4 -12 1 -19z m-12
-377 c-3 -6 -11 -11 -17 -11 -6 0 -6 6 2 15 14 17 26 13 15 -4z m-14 -264 c-6
-6 -8 3 -6 29 4 52 7 56 12 15 3 -18 0 -38 -6 -44z"/>
<path d="M2769 5365 c-3 -2 -58 -6 -124 -9 -279 -14 -328 -29 -406 -128 -22
-29 -57 -71 -78 -93 -20 -22 -60 -69 -88 -105 -29 -36 -59 -73 -68 -82 -8 -10
-15 -22 -15 -27 0 -5 -4 -11 -8 -13 -4 -1 -23 -23 -42 -48 -19 -25 -37 -47
-40 -50 -3 -3 -17 -21 -30 -40 -13 -19 -27 -37 -30 -40 -15 -14 -100 -132
-123 -171 -14 -24 -34 -53 -44 -64 -10 -11 -28 -36 -40 -57 -52 -88 -101 -119
-129 -80 -13 17 -75 20 -228 11 -68 -3 -97 -30 -103 -95 -6 -78 33 -127 111
-139 21 -3 42 -8 46 -10 5 -3 11 -1 14 4 3 5 22 12 41 15 20 4 51 21 70 38
l35 30 83 -21 c111 -29 111 -29 442 -36 160 -3 335 -8 390 -11 55 -3 174 -6
265 -8 373 -8 606 -21 615 -37 9 -13 45 -11 45 2 0 9 43 10 158 5 250 -12 296
-14 494 -21 103 -4 251 -10 330 -14 79 -4 197 -3 263 2 66 5 168 7 226 4 103
-4 169 8 169 31 0 4 8 17 18 28 18 19 23 41 41 174 22 157 31 613 17 788 -12
141 -42 174 -171 187 -38 3 -99 10 -135 15 -79 11 -163 18 -295 25 -55 3 -127
7 -160 10 -33 2 -125 7 -205 10 -80 3 -194 8 -255 10 -143 7 -1052 15 -1056
10z m-397 -137 c-8 -8 -9 -15 -1 -25 14 -16 29 -17 29 -2 0 5 -4 8 -9 4 -5 -3
-12 -1 -15 4 -3 5 8 8 24 7 21 -2 32 3 36 16 6 21 31 23 71 6 15 -6 76 -12
135 -12 59 -1 112 -6 117 -11 9 -9 -21 -90 -84 -230 -7 -16 -21 -50 -30 -75
-10 -25 -23 -58 -30 -75 -8 -16 -17 -43 -21 -60 -4 -16 -17 -50 -29 -75 -12
-25 -28 -67 -35 -93 -11 -40 -21 -54 -54 -74 -23 -15 -64 -50 -93 -80 -47 -48
-56 -53 -96 -53 -56 0 -98 -15 -165 -58 -64 -41 -89 -49 -167 -56 -131 -13
-171 -19 -204 -32 -47 -19 -170 -19 -177 1 -3 8 8 37 24 63 29 47 160 234 182
259 5 7 10 16 10 22 0 5 4 11 9 13 4 2 30 35 57 74 158 229 438 554 477 554 9
0 19 5 23 11 4 8 9 8 17 0 8 -8 8 -14 -1 -23z m860 -38 c-2 -23 -38 -127 -68
-195 -7 -16 -16 -43 -19 -58 -4 -16 -16 -34 -26 -40 -13 -8 -19 -24 -19 -52 0
-22 -9 -67 -19 -100 -59 -188 -139 -266 -206 -199 -12 12 -14 27 -10 63 19
147 30 200 46 238 19 42 18 79 -2 134 -8 20 -5 39 10 80 12 30 21 62 21 71 0
10 15 33 34 53 l34 34 113 -2 114 -2 -3 -25z m587 20 c10 -5 72 -12 137 -16
66 -3 137 -7 159 -9 158 -10 376 -19 520 -20 164 -2 250 -15 274 -40 13 -14
22 -202 11 -231 -9 -24 -12 -24 -117 -23 -60 1 -117 1 -128 0 -22 -1 -55 -51
-55 -82 0 -38 -36 -60 -98 -59 -71 2 -396 -14 -544 -26 -65 -6 -67 -5 -80 23
-8 15 -20 47 -27 69 -14 45 -55 97 -83 107 -29 10 -23 55 7 63 29 7 39 36 38
103 -1 46 -13 61 -50 61 -29 0 -52 25 -46 49 4 16 29 32 61 40 2 1 11 -3 21
-9z m-1009 -465 c0 -14 -4 -25 -10 -25 -11 0 -14 33 -3 43 11 11 13 8 13 -18z"/>
<path d="M6532 4638 c-18 -18 -14 -69 8 -105 31 -51 92 -41 113 18 3 9 -3 35
-13 57 -18 39 -22 42 -58 42 -21 0 -43 -5 -50 -12z"/>
<path d="M6689 4456 c-2 -2 -21 -7 -42 -10 -54 -9 -77 -23 -77 -49 1 -33 37
-107 53 -107 24 0 100 30 118 46 16 14 16 19 2 60 -13 38 -43 71 -54 60z"/>
<path d="M4831 4036 c-10 -11 -9 -14 1 -12 14 2 23 15 15 22 -2 2 -10 -2 -16
-10z"/>
<path d="M6038 4014 c-21 -11 -28 -22 -28 -43 0 -69 79 -100 133 -52 30 27 33
47 15 86 -9 21 -18 25 -52 25 -23 -1 -53 -8 -68 -16z"/>
<path d="M6790 3672 c-34 -9 -95 -66 -110 -103 -12 -27 -40 -41 -40 -19 0 14
-67 13 -76 -1 -3 -6 -16 -8 -27 -5 -12 3 -26 2 -31 -3 -12 -8 -96 -29 -141
-35 -16 -2 -43 -10 -60 -16 -16 -6 -38 -13 -47 -15 -9 -2 -50 -13 -90 -24 -69
-20 -119 -30 -160 -34 -10 -1 -18 -4 -18 -8 0 -4 -8 -6 -17 -4 -10 1 -29 -6
-43 -16 -23 -15 -54 -23 -140 -34 -72 -10 -109 -18 -105 -25 3 -4 -2 -11 -11
-14 -8 -3 -12 -2 -9 4 3 6 2 10 -4 10 -5 0 -11 -5 -13 -11 -2 -5 -15 -12 -28
-13 -14 -2 -43 -8 -65 -14 -22 -6 -55 -14 -74 -17 -18 -3 -46 -12 -62 -20 -15
-8 -41 -15 -56 -15 -16 0 -47 -9 -68 -20 -22 -11 -45 -18 -51 -16 -6 2 -24 -2
-40 -9 -29 -13 -102 -30 -117 -27 -4 1 -18 -7 -30 -18 -30 -29 -59 -22 -79 20
-9 19 -34 54 -54 77 -30 34 -48 45 -91 54 -47 11 -61 10 -106 -6 -53 -19 -167
-116 -167 -142 0 -7 -4 -13 -9 -13 -5 0 -14 -13 -20 -28 -7 -16 -26 -45 -44
-64 -26 -30 -41 -38 -82 -43 -141 -16 -263 -38 -288 -51 -39 -22 -257 -31
-682 -29 -364 2 -415 7 -415 39 0 8 14 39 30 70 17 30 39 83 50 118 11 35 28
73 38 83 10 11 21 28 25 38 14 38 71 44 489 52 145 2 245 8 258 15 11 6 20 8
20 4 0 -3 8 0 17 7 11 10 14 10 9 2 -5 -9 0 -13 14 -13 14 0 19 -4 14 -12 -6
-10 -4 -10 7 -2 8 6 25 11 38 12 29 1 56 26 47 41 -8 12 -116 11 -116 -1 0 -4
-15 -5 -32 -2 -18 3 -42 5 -53 5 -11 -1 -171 -2 -355 -4 -325 -3 -336 -3 -387
-26 -50 -22 -58 -23 -255 -18 -225 6 -270 7 -295 5 -10 0 -74 2 -143 6 -69 4
-183 9 -255 11 -247 9 -400 15 -485 19 -101 6 -526 20 -590 21 -38 0 -45 -3
-45 -20 0 -11 11 -25 26 -32 27 -13 227 -28 504 -38 94 -4 188 -9 210 -12 22
-3 46 -5 52 -6 7 0 11 -3 8 -6 -7 -6 -211 -3 -523 9 -133 5 -249 7 -257 4 -8
-4 -15 -17 -15 -29 0 -33 51 -48 172 -49 54 -1 98 -5 98 -9 0 -5 4 -6 9 -2 5
3 12 1 16 -5 4 -7 -37 -10 -122 -9 -162 2 -160 2 -167 -16 -16 -42 8 -52 149
-60 172 -10 490 -25 563 -26 55 -1 72 -5 72 -16 0 -13 -22 -14 -147 -9 -82 4
-253 11 -380 16 -233 9 -263 8 -263 -14 -1 -33 -17 -38 -121 -37 -57 1 -117 4
-134 6 -16 2 -73 7 -125 10 -124 7 -192 13 -260 24 -30 5 -66 9 -79 9 -13 1
-27 6 -31 12 -7 12 -32 -13 -77 -80 -29 -42 -31 -50 -29 -125 3 -95 11 -122
35 -130 38 -12 74 -66 77 -116 2 -26 5 -58 8 -71 12 -65 28 -123 35 -133 8
-10 19 -52 45 -180 16 -78 60 -210 100 -298 32 -72 66 -114 120 -147 40 -24
47 -25 221 -25 175 0 182 1 237 27 77 37 114 90 171 247 25 68 24 67 102 75
17 2 33 -1 36 -6 9 -15 75 -21 96 -10 13 7 28 6 51 -4 19 -8 30 -9 26 -3 -4 8
1 9 17 3 13 -4 35 -9 49 -10 14 -1 25 -3 25 -4 0 -2 16 -4 35 -5 19 -1 69 -8
110 -14 42 -6 134 -13 205 -16 72 -2 139 -6 150 -8 46 -10 203 -18 405 -22
118 -3 231 -7 250 -10 28 -4 165 -7 240 -5 8 0 35 -2 60 -4 161 -14 212 -17
358 -20 90 -1 165 1 168 6 3 4 9 6 14 3 5 -3 19 -1 31 6 12 6 19 7 16 1 -8
-11 83 -11 101 1 7 5 12 3 12 -5 1 -10 4 -9 13 2 14 17 94 21 105 5 9 -12 32
-16 99 -17 l52 -1 11 -46 c30 -132 66 -227 94 -250 9 -7 16 -19 16 -25 0 -15
53 -67 71 -69 8 -2 19 -5 24 -9 12 -7 99 -17 208 -24 80 -5 205 10 222 27 5 5
16 9 25 9 21 1 83 58 102 95 69 129 103 269 123 497 4 53 12 81 23 91 14 11
84 35 152 52 8 2 28 8 43 14 15 6 42 13 59 16 17 3 75 23 127 44 140 56 180
69 236 77 28 4 94 21 147 40 64 21 126 34 181 38 89 7 141 18 163 37 23 19 42
3 49 -43 32 -199 80 -290 185 -349 40 -22 281 -19 342 4 84 32 138 118 183
291 33 123 45 240 45 436 0 215 17 308 78 424 22 43 25 61 23 128 -1 58 -7 87
-22 112 -18 32 -23 34 -45 24 -20 -9 -28 -8 -47 10 -24 23 -79 34 -117 24z
m-286 -246 c-18 -13 -64 -21 -89 -16 -11 2 71 27 95 29 10 1 8 -3 -6 -13z
m-114 -23 c0 -8 -74 -35 -110 -39 -43 -5 -44 -5 -25 11 12 10 33 15 52 13 17
-2 31 -1 31 2 -1 12 3 15 27 15 14 0 25 -1 25 -2z m-205 -62 c-14 -12 -75 -22
-75 -11 0 10 23 17 60 19 14 1 20 -3 15 -8z m-85 -21 c0 -5 -16 -10 -35 -10
-19 0 -35 -4 -35 -10 0 -5 -8 -10 -17 -10 -10 -1 -36 -7 -58 -15 -22 -8 -60
-17 -85 -20 l-45 -5 50 16 c28 9 59 20 70 25 17 8 126 36 148 38 4 1 7 -3 7
-9z m-3410 -54 c80 -4 171 -8 202 -9 33 -1 57 -6 55 -12 -2 -11 -359 -6 -602
7 -33 2 -84 5 -113 6 -32 1 -51 6 -47 12 6 10 241 8 505 -4z m370 -21 c0 -8
-9 -15 -20 -15 -20 0 -26 11 -13 23 12 13 33 7 33 -8z m2742 -11 c-13 -9 -31
-14 -40 -12 -10 3 -23 -1 -30 -9 -7 -7 -23 -13 -36 -13 -13 0 -46 -6 -72 -14
-181 -53 -231 -66 -246 -66 -10 0 -18 -4 -18 -10 0 -5 -16 -10 -36 -10 -50 0
-35 14 38 34 35 10 97 29 138 42 42 13 109 30 150 38 112 22 122 25 128 31 3
3 15 5 26 5 20 0 20 -1 -2 -16z m865 0 c3 -8 12 -13 19 -10 30 11 61 -82 33
-100 -8 -4 -8 -9 0 -17 14 -14 14 -37 0 -37 -6 0 -9 6 -7 12 4 12 -1 22 -34
58 -9 10 -16 20 -15 22 2 4 -13 -17 -29 -39 -8 -12 -11 -5 -13 35 -2 68 29
120 46 76z m-5219 -33 c12 0 22 -5 22 -10 0 -7 -15 -8 -72 -3 -10 1 -18 6 -18
11 0 4 10 7 23 6 12 -1 32 -3 45 -4z m57 -11 c3 -5 2 -10 -4 -10 -5 0 -13 5
-16 10 -3 6 -2 10 4 10 5 0 13 -4 16 -10z m110 1 c6 -1 4 -5 -3 -10 -8 -4 -23
-7 -35 -6 -65 7 -63 7 -37 14 14 4 34 6 45 5 11 -1 25 -3 30 -3z m215 -13 c0
-5 -31 -8 -70 -6 -38 1 -70 6 -70 11 0 4 32 7 70 6 39 -1 70 -6 70 -11z m450
-18 c0 -5 -9 -10 -20 -10 -11 0 -20 5 -20 10 0 6 9 10 20 10 11 0 20 -4 20
-10z m188 -1 c34 -1 59 -5 57 -9 -6 -9 -144 -12 -158 -3 -11 7 23 24 34 17 3
-2 33 -4 67 -5z m181 -10 c34 -1 58 -5 54 -9 -11 -10 -133 0 -133 12 0 5 4 7
8 4 5 -3 37 -6 71 -7z m339 -6 c24 -3 40 -8 37 -12 -10 -9 -289 -1 -299 9 -10
10 190 12 262 3z m2280 -52 c10 -6 8 -10 -10 -14 -34 -10 -68 -8 -68 2 0 17
57 26 78 12z m-88 -21 c0 -5 -5 -10 -11 -10 -5 0 -7 5 -4 10 3 6 8 10 11 10 2
0 4 -4 4 -10z m-2465 -16 c227 -6 255 -8 255 -26 0 -8 -59 -9 -222 -5 -646 20
-615 18 -602 38 5 9 55 10 183 5 97 -3 271 -8 386 -12z m4061 -39 c-2 -7 2
-19 9 -25 12 -10 16 -9 21 3 3 9 2 21 -2 28 -5 8 -3 9 5 5 7 -5 17 -20 23 -34
14 -36 18 -192 6 -216 -6 -10 -11 -38 -13 -62 -1 -24 -9 -54 -18 -67 -8 -13
-20 -42 -26 -64 -13 -47 -46 -93 -67 -93 -20 0 -17 14 6 35 11 10 19 23 18 29
0 6 4 24 10 39 13 32 15 77 4 92 -4 6 -15 11 -25 11 -17 2 -27 -20 -32 -70 -1
-11 -3 -26 -4 -32 -2 -18 -39 -24 -45 -7 -4 8 -3 19 0 24 6 10 -23 97 -38 114
-14 16 -9 48 7 41 8 -3 15 -1 15 5 0 6 4 8 10 4 5 -3 27 10 48 30 l40 35 16
-25 c33 -51 64 -19 50 52 -5 21 -7 40 -7 43 1 3 -10 6 -24 5 -20 0 -27 8 -39
40 -14 42 -18 87 -8 98 11 11 66 -23 60 -38z m-6446 -125 c-19 -13 -30 -13
-30 0 0 6 10 10 23 10 18 0 19 -2 7 -10z m230 -7 c29 -4 32 -7 15 -13 -11 -4
-31 -5 -45 -3 -23 4 -90 10 -147 12 -13 1 -23 5 -23 10 0 9 134 6 200 -6z
m130 -15 c0 -12 -78 -10 -85 2 -3 5 12 9 40 7 25 -1 45 -5 45 -9z m240 -4 c72
-4 133 -11 136 -15 5 -8 -36 -14 -60 -10 -24 5 -129 10 -203 11 -46 0 -83 4
-83 9 0 10 35 19 62 15 9 -2 76 -6 148 -10z m418 -29 c7 -6 -28 -8 -138 -5
-47 1 -89 6 -95 12 -7 6 30 8 109 4 66 -3 121 -8 124 -11z m347 -10 c33 -3
128 -7 210 -10 83 -3 200 -8 260 -10 61 -3 160 -7 220 -9 141 -6 133 -6 148
-5 6 1 66 -2 132 -6 66 -4 147 -7 180 -6 33 0 76 -4 95 -9 38 -10 -219 -6
-610 10 -118 5 -271 11 -340 14 -293 12 -437 18 -475 21 -22 2 -64 4 -92 4
-29 1 -53 5 -53 11 0 9 143 7 325 -5z m1493 -70 c8 -7 -132 -5 -163 4 -18 4
-18 5 4 11 29 7 149 -4 159 -15z m160 -2 c-16 -2 -40 -2 -55 0 -16 2 -3 4 27
4 30 0 43 -2 28 -4z m1326 -29 c9 -3 16 -14 16 -24 0 -22 16 -35 25 -20 11 18
22 10 37 -29 12 -31 13 -44 3 -67 -6 -16 -10 -36 -8 -44 2 -8 -4 0 -14 17 -20
40 -48 51 -72 29 -10 -9 -23 -16 -29 -16 -7 0 -12 -5 -12 -11 0 -5 -4 -8 -9
-4 -14 8 -9 44 6 49 10 4 11 17 7 46 -5 31 -3 45 11 60 21 23 18 22 39 14z
m-2984 -127 c0 -14 -20 -37 -32 -37 -4 0 -8 11 -8 25 0 18 5 25 20 25 11 0 20
-6 20 -13z m94 -2 c7 -20 -3 -45 -18 -45 -18 0 -36 21 -36 42 0 23 45 25 54 3z
m84 -43 c-13 -6 -38 18 -38 37 0 12 6 10 24 -9 12 -14 19 -27 14 -28z m187 28
c7 -23 -1 -40 -20 -40 -8 0 -17 5 -20 10 -9 15 4 50 20 50 8 0 16 -9 20 -20z
m-105 -10 c0 -23 -10 -26 -28 -8 -18 18 -15 28 8 28 13 0 20 -7 20 -20z m190
0 c0 -11 -4 -20 -9 -20 -13 0 -32 26 -24 33 13 14 33 6 33 -13z m-1642 -66
c21 -6 13 -19 -20 -32 -28 -10 -35 -10 -51 7 -35 34 1 47 71 25z m1379 -21
c12 -15 14 -15 31 0 23 21 61 22 98 2 25 -13 30 -13 45 1 20 18 103 9 95 -11
-2 -7 2 -21 9 -32 19 -24 19 -59 -1 -67 -25 -9 -94 -7 -94 3 0 5 12 11 27 13
44 5 38 25 -9 30 -24 2 -44 1 -46 -4 -8 -19 -29 -7 -25 15 9 44 -48 60 -62 17
-9 -28 5 -50 33 -50 24 0 25 -1 11 -16 -15 -14 -20 -14 -53 0 -20 8 -39 22
-42 29 -3 9 -13 13 -25 10 -15 -4 -17 -8 -8 -19 9 -12 2 -14 -45 -14 -51 0
-56 2 -56 22 0 12 12 32 28 45 26 21 26 22 5 23 -25 0 -39 16 -21 24 23 10 93
-4 105 -21z m2912 -13 c16 0 34 -49 31 -85 -1 -16 -13 -41 -26 -54 -20 -20
-29 -50 -26 -82 5 -39 14 -64 24 -71 15 -9 34 -11 25 -1 -4 3 0 11 9 18 10 7
16 25 15 48 -2 51 -2 55 7 119 8 58 22 89 22 50 0 -12 3 -22 8 -22 7 0 8 -11
11 -125 2 -107 -10 -183 -43 -278 -28 -80 -77 -137 -118 -137 -29 0 -38 17
-15 26 7 2 14 14 15 27 1 12 13 49 26 82 25 59 25 60 5 81 -21 22 -26 39 -7
28 7 -5 8 -3 3 6 -13 21 -35 -18 -35 -64 0 -27 -7 -47 -22 -63 -34 -36 -48
-30 -42 18 8 53 -20 131 -43 122 -11 -4 -14 -2 -11 8 3 8 12 14 20 13 8 -1 15
5 15 12 0 7 -5 11 -11 8 -6 -3 -3 1 8 10 20 16 56 6 56 -16 0 -21 14 3 18 30
2 15 11 34 21 43 15 14 17 29 13 100 -5 96 -5 113 0 151 3 23 5 25 19 12 8 -8
21 -14 28 -14z m-4153 -21 c3 -5 29 -9 58 -9 35 0 58 -5 66 -15 16 -20 16 -65
0 -75 -8 -5 -59 -6 -114 -4 -230 10 -240 12 -229 55 6 21 23 26 23 6 0 -7 9
-18 20 -25 12 -7 20 -8 20 -2 0 5 7 10 16 10 8 0 22 6 29 13 29 25 40 36 52
51 12 14 48 11 59 -5z m2874 -104 c21 -11 27 -20 23 -35 -3 -11 -9 -17 -14
-14 -5 3 -9 1 -9 -5 0 -14 -58 -43 -70 -36 -6 3 -10 -1 -10 -9 0 -11 8 -15 24
-14 14 1 23 5 21 8 -2 3 17 12 42 18 30 8 47 19 50 32 3 11 9 17 14 14 5 -3 9
-1 9 5 0 7 8 7 25 1 15 -6 49 -6 83 -2 56 8 59 7 70 -17 15 -32 15 -78 1 -87
-26 -16 -348 -8 -365 9 -13 12 -12 53 2 79 9 16 13 32 10 35 -9 10 19 32 42
33 13 0 36 -7 52 -15z m-1940 -215 c0 -5 -5 -10 -11 -10 -5 0 -7 5 -4 10 3 6
8 10 11 10 2 0 4 -4 4 -10z m130 -16 c0 -8 -19 -13 -24 -6 -3 5 1 9 9 9 8 0
15 -2 15 -3z"/>
<path d="M4931 3618 c-6 -15 -3 -37 7 -63 20 -53 33 -67 52 -55 13 8 12 11 -4
23 -14 11 -18 25 -18 65 1 40 -2 52 -14 52 -8 0 -18 -10 -23 -22z"/>
<path d="M474 3489 c-6 -10 -6 -11 21 -14 11 -2 36 -6 55 -10 19 -3 47 -7 63
-7 15 -1 27 -5 27 -9 0 -4 8 -8 18 -8 24 1 64 -7 86 -16 11 -5 32 -3 48 3 16
6 35 9 41 7 21 -8 131 -13 155 -8 50 12 5 38 -83 48 -133 16 -424 25 -431 14z"/>
<path d="M3226 3232 c-3 -5 1 -9 9 -9 8 0 12 4 9 9 -3 4 -7 8 -9 8 -2 0 -6 -4
-9 -8z"/>
<path d="M3750 3210 c0 -5 4 -10 9 -10 6 0 13 5 16 10 3 6 -1 10 -9 10 -9 0
-16 -4 -16 -10z"/>
<path d="M3617 3199 c7 -7 15 -10 18 -7 3 3 -2 9 -12 12 -14 6 -15 5 -6 -5z"/>
<path d="M3583 3185 c0 -8 4 -12 9 -9 5 3 6 10 3 15 -9 13 -12 11 -12 -6z"/>
<path d="M3523 3135 c0 -9 9 -14 24 -13 24 2 30 12 13 23 -5 3 -10 1 -10 -6 0
-8 -4 -9 -13 0 -10 8 -14 7 -14 -4z"/>
<path d="M3285 3080 c-16 -18 -16 -18 7 -13 21 6 22 5 9 -10 -11 -14 -11 -17
0 -18 27 -2 40 2 75 26 40 27 36 32 -27 33 -34 1 -51 -4 -64 -18z"/>
<path d="M3636 3076 c-18 -68 -5 -78 87 -60 15 3 27 1 27 -4 0 -5 11 -7 25 -4
22 4 25 10 25 43 0 24 -5 39 -12 40 -23 2 -72 -2 -102 -7 -17 -4 -26 -2 -23 3
4 5 0 10 -8 10 -7 0 -16 -10 -19 -21z"/>
<path d="M3715 2991 c-3 -5 -2 -12 3 -15 5 -3 9 1 9 9 0 17 -3 19 -12 6z"/>
<path d="M3858 2003 c7 -3 16 -2 19 1 4 3 -2 6 -13 5 -11 0 -14 -3 -6 -6z"/>
</g>
</svg>
